<?xml version='1.0' encoding='utf-8'?>
<svg xmlns="http://www.w3.org/2000/svg" version="1.0" width="681" height="366" viewBox="0 0 681 366"><defs><linearGradient id="bg-gradient" x1="0%" y1="0%" x2="100%" y2="100%"><stop offset="0%" style="stop-color:#ffffff;stop-opacity:1" /><stop offset="100%" style="stop-color:#aaaaff;stop-opacity:1" /></linearGradient></defs><rect x="0.0" y="0.0" width="681.0" height="366.0" fill="url(#bg-gradient)" /><text x="60" y="8" font-family="Courier New, monospace" font-size="11" dominant-baseline="middle" text-anchor="middle">0</text><text x="100" y="8" font-family="Courier New, monospace" font-size="11" dominant-baseline="middle" text-anchor="middle">1</text><text x="140" y="8" font-family="Courier New, monospace" font-size="11" dominant-baseline="middle" text-anchor="middle">2</text><text x="180" y="8" font-family="Courier New, monospace" font-size="11" dominant-baseline="middle" text-anchor="middle">3</text><text x="220" y="8" font-family="Courier New, monospace" font-size="11" dominant-baseline="middle" text-anchor="middle">4</text><text x="260" y="8" font-family="Courier New, monospace" font-size="11" dominant-baseline="middle" text-anchor="middle">5</text><text x="300" y="8" font-family="Courier New, monospace" font-size="11" dominant-baseline="middle" text-anchor="middle">6</text><text x="340" y="8" font-family="Courier New, monospace" font-size="11" dominant-baseline="middle" text-anchor="middle">7</text><text x="380" y="8" font-family="Courier New, monospace" font-size="11" dominant-baseline="middle" text-anchor="middle">8</text><text x="420" y="8" font-family="Courier New, monospace" font-size="11" dominant-baseline="middle" text-anchor="middle">9</text><text x="460" y="8" font-family="Courier New, monospace" font-size="11" dominant-baseline="middle" text-anchor="middle">a</text><text x="500" y="8" font-family="Courier New, monospace" font-size="11" dominant-baseline="middle" text-anchor="middle">b</text><text x="540" y="8" font-family="Courier New, monospace" font-size="11" dominant-baseline="middle" text-anchor="middle">c</text><text x="580" y="8" font-family="Courier New, monospace" font-size="11" dominant-baseline="middle" text-anchor="middle">d</text><text x="620" y="8" font-family="Courier New, monospace" font-size="11" dominant-baseline="middle" text-anchor="middle">e</text><text x="660" y="8" font-family="Courier New, monospace" font-size="11" dominant-baseline="middle" text-anchor="middle">f</text><rect x="40" y="15" height="30" width="320" fill="#e8f4f8" /><line x1="40" y1="15" x2="360" y2="15" stroke="#000000" stroke-width="1" /><line x1="40" y1="45" x2="360" y2="45" stroke="#000000" stroke-width="1" /><line stroke-dasharray="1,3" x1="360" y1="15" x2="360" y2="45" stroke="#000000" stroke-width="1" /><line x1="40" y1="15" x2="40" y2="45" stroke="#000000" stroke-width="1" /><text font-size="18" font-family="Palatino, Georgia, Times New Roman, serif" x="200" y="31" text-anchor="middle" dominant-baseline="middle">0x22</text><rect x="360" y="15" height="30" width="320" fill="#e8f4f8" /><line x1="360" y1="15" x2="680" y2="15" stroke="#000000" stroke-width="1" /><line x1="360" y1="45" x2="680" y2="45" stroke="#000000" stroke-width="1" /><line stroke-dasharray="1,3" x1="680" y1="15" x2="680" y2="45" stroke="#000000" stroke-width="1" /><line stroke-dasharray="1,3" x1="360" y1="15" x2="360" y2="45" stroke="#000000" stroke-width="1" /><text font-size="18" font-family="Palatino, Georgia, Times New Roman, serif" x="520" y="31" text-anchor="middle" dominant-baseline="middle">Size MSB</text><text font-size="11" font-family="Courier New, monospace" font-style="normal" dominant-baseline="middle" x="35" y="30" text-anchor="end">00</text><text font-size="11" font-family="Courier New, monospace" font-style="normal" dominant-baseline="middle" x="35" y="60" text-anchor="end">10</text><rect x="40" y="45" height="30" width="320" fill="#e8f4f8" /><line x1="40" y1="45" x2="360" y2="45" stroke="#000000" stroke-width="1" /><line x1="40" y1="75" x2="360" y2="75" stroke="#000000" stroke-width="1" /><line stroke-dasharray="1,3" x1="360" y1="45" x2="360" y2="75" stroke="#000000" stroke-width="1" /><line stroke-dasharray="1,3" x1="40" y1="45" x2="40" y2="75" stroke="#000000" stroke-width="1" /><text font-size="18" font-family="Palatino, Georgia, Times New Roman, serif" x="200" y="61" text-anchor="middle" dominant-baseline="middle">Size LSB</text><rect x="360" y="45" height="30" width="320" fill="#e8f4f8" /><line x1="360" y1="45" x2="680" y2="45" stroke="#000000" stroke-width="1" /><line x1="360" y1="75" x2="680" y2="75" stroke="#000000" stroke-width="1" /><line x1="680" y1="45" x2="680" y2="75" stroke="#000000" stroke-width="1" /><line stroke-dasharray="1,3" x1="360" y1="45" x2="360" y2="75" stroke="#000000" stroke-width="1" /><text font-size="18" font-family="Palatino, Georgia, Times New Roman, serif" x="520" y="61" text-anchor="middle" dominant-baseline="middle">1-255</text><rect x="40" y="75" height="30" width="320" fill="#e8f4f8" /><line x1="40" y1="75" x2="360" y2="75" stroke="#000000" stroke-width="1" /><line x1="40" y1="105" x2="360" y2="105" stroke="#000000" stroke-width="1" /><line stroke-dasharray="1,3" x1="360" y1="75" x2="360" y2="105" stroke="#000000" stroke-width="1" /><line x1="40" y1="75" x2="40" y2="105" stroke="#000000" stroke-width="1" /><text font-size="18" font-family="Palatino, Georgia, Times New Roman, serif" x="200" y="91" text-anchor="middle" dominant-baseline="middle">Power MSB</text><rect x="360" y="75" height="30" width="320" fill="#e8f4f8" /><line x1="360" y1="75" x2="680" y2="75" stroke="#000000" stroke-width="1" /><line x1="360" y1="105" x2="680" y2="105" stroke="#000000" stroke-width="1" /><line stroke-dasharray="1,3" x1="680" y1="75" x2="680" y2="105" stroke="#000000" stroke-width="1" /><line stroke-dasharray="1,3" x1="360" y1="75" x2="360" y2="105" stroke="#000000" stroke-width="1" /><text font-size="18" font-family="Palatino, Georgia, Times New Roman, serif" x="520" y="91" text-anchor="middle" dominant-baseline="middle">Power LSB</text><text font-size="11" font-family="Courier New, monospace" font-style="normal" dominant-baseline="middle" x="35" y="120" text-anchor="end">20</text><rect x="40" y="105" height="30" width="320" fill="#e8f4f8" /><line x1="40" y1="105" x2="360" y2="105" stroke="#000000" stroke-width="1" /><line x1="40" y1="135" x2="360" y2="135" stroke="#000000" stroke-width="1" /><line stroke-dasharray="1,3" x1="360" y1="105" x2="360" y2="135" stroke="#000000" stroke-width="1" /><line stroke-dasharray="1,3" x1="40" y1="105" x2="40" y2="135" stroke="#000000" stroke-width="1" /><text font-size="18" font-family="Palatino, Georgia, Times New Roman, serif" x="200" y="121" text-anchor="middle" dominant-baseline="middle">Line MSB</text><rect x="360" y="105" height="30" width="320" fill="#e8f4f8" /><line x1="360" y1="105" x2="680" y2="105" stroke="#000000" stroke-width="1" /><line x1="360" y1="135" x2="680" y2="135" stroke="#000000" stroke-width="1" /><line x1="680" y1="105" x2="680" y2="135" stroke="#000000" stroke-width="1" /><line stroke-dasharray="1,3" x1="360" y1="105" x2="360" y2="135" stroke="#000000" stroke-width="1" /><text font-size="18" font-family="Palatino, Georgia, Times New Roman, serif" x="520" y="121" text-anchor="middle" dominant-baseline="middle">Line LSB</text><rect x="40" y="135" height="30" width="320" fill="#e8f4f8" /><line x1="40" y1="135" x2="360" y2="135" stroke="#000000" stroke-width="1" /><line x1="40" y1="165" x2="360" y2="165" stroke="#000000" stroke-width="1" /><line x1="360" y1="135" x2="360" y2="165" stroke="#000000" stroke-width="1" /><line x1="40" y1="135" x2="40" y2="165" stroke="#000000" stroke-width="1" /><text font-size="18" font-family="Palatino, Georgia, Times New Roman, serif" x="200" y="151" text-anchor="middle" dominant-baseline="middle">Count</text><rect x="360" y="135" height="30" width="320" fill="#fff4e8" /><line x1="360" y1="135" x2="680" y2="135" stroke="#000000" stroke-width="1" /><line x1="680" y1="135" x2="680" y2="165" stroke="#000000" stroke-width="1" /><line x1="360" y1="135" x2="360" y2="165" stroke="#000000" stroke-width="1" /><text font-size="18" font-family="Palatino, Georgia, Times New Roman, serif" x="520" y="151" text-anchor="middle" dominant-baseline="middle">Packed Pixel Data</text><text font-size="11" font-family="Courier New, monospace" font-style="normal" dominant-baseline="middle" x="35" y="180" text-anchor="end">30</text><polygon points=" 40,165 680,165 680,210 40,180" fill="#fff4e8" /><line x1="40" y1="165" x2="40" y2="180" stroke="#000000" stroke-width="1" /><line x1="680" y1="165" x2="680" y2="210" stroke="#000000" stroke-width="1" /><line stroke-dasharray="1,1" x1="40" y1="180" x2="680" y2="210" stroke="#000000" stroke-width="1" /><polygon points=" 40,190 680,220 680,235 40,235" fill="#fff4e8" /><line x1="40" y1="190" x2="40" y2="235" stroke="#000000" stroke-width="1" /><line x1="680" y1="220" x2="680" y2="235" stroke="#000000" stroke-width="1" /><line stroke-dasharray="1,1" x1="40" y1="190" x2="680" y2="220" stroke="#000000" stroke-width="1" /><text font-size="11" font-family="Palatino, Georgia, Times New Roman, serif" font-style="italic" dominant-baseline="middle" x="35" y="250" text-anchor="end">i+<tspan font-size="11" font-family="Courier New, monospace" font-style="normal" dominant-baseline="middle">00</tspan></text><rect x="40" y="265" height="30" width="640" fill="#fff4e8" /><line x1="40" y1="265" x2="680" y2="265" stroke="#000000" stroke-width="1" /><line x1="680" y1="265" x2="680" y2="295" stroke="#000000" stroke-width="1" /><line x1="40" y1="265" x2="40" y2="295" stroke="#000000" stroke-width="1" /><text font-size="18" font-family="Palatino, Georgia, Times New Roman, serif" x="360" y="281" text-anchor="middle" dominant-baseline="middle">...</text><text font-size="11" font-family="Palatino, Georgia, Times New Roman, serif" font-style="italic" dominant-baseline="middle" x="35" y="280" text-anchor="end">i+<tspan font-size="11" font-family="Courier New, monospace" font-style="normal" dominant-baseline="middle">00</tspan></text><text font-size="11" font-family="Palatino, Georgia, Times New Roman, serif" font-style="italic" dominant-baseline="middle" x="35" y="310" text-anchor="end">i+<tspan font-size="11" font-family="Courier New, monospace" font-style="normal" dominant-baseline="middle">10</tspan></text><polygon points=" 40,295 680,295 680,340 40,310" fill="#fff4e8" /><line x1="40" y1="295" x2="40" y2="310" stroke="#000000" stroke-width="1" /><line x1="680" y1="295" x2="680" y2="340" stroke="#000000" stroke-width="1" /><line stroke-dasharray="1,1" x1="40" y1="310" x2="680" y2="340" stroke="#000000" stroke-width="1" /><polygon points=" 40,320 680,350 680,365 40,365" fill="#fff4e8" /><line x1="40" y1="320" x2="40" y2="365" stroke="#000000" stroke-width="1" /><line x1="680" y1="350" x2="680" y2="365" stroke="#000000" stroke-width="1" /><line stroke-dasharray="1,1" x1="40" y1="320" x2="680" y2="350" stroke="#000000" stroke-width="1" /><text font-size="11" font-family="Palatino, Georgia, Times New Roman, serif" font-style="italic" dominant-baseline="middle" x="35" y="380" text-anchor="end">i+<tspan font-size="11" font-family="Courier New, monospace" font-style="normal" dominant-baseline="middle">00</tspan></text></svg>