<?xml version='1.0' encoding='utf-8'?>
<svg xmlns="http://www.w3.org/2000/svg" version="1.0" width="681" height="616" viewBox="0 0 681 616"><defs><linearGradient id="bg-gradient" x1="0%" y1="0%" x2="100%" y2="100%"><stop offset="0%" style="stop-color:#ffffff;stop-opacity:1" /><stop offset="100%" style="stop-color:#aaaaff;stop-opacity:1" /></linearGradient></defs><rect x="0.0" y="0.0" width="681.0" height="616.0" fill="url(#bg-gradient)" /><text x="60" y="8" font-family="Courier New, monospace" font-size="11" dominant-baseline="middle" text-anchor="middle">0</text><text x="100" y="8" font-family="Courier New, monospace" font-size="11" dominant-baseline="middle" text-anchor="middle">1</text><text x="140" y="8" font-family="Courier New, monospace" font-size="11" dominant-baseline="middle" text-anchor="middle">2</text><text x="180" y="8" font-family="Courier New, monospace" font-size="11" dominant-baseline="middle" text-anchor="middle">3</text><text x="220" y="8" font-family="Courier New, monospace" font-size="11" dominant-baseline="middle" text-anchor="middle">4</text><text x="260" y="8" font-family="Courier New, monospace" font-size="11" dominant-baseline="middle" text-anchor="middle">5</text><text x="300" y="8" font-family="Courier New, monospace" font-size="11" dominant-baseline="middle" text-anchor="middle">6</text><text x="340" y="8" font-family="Courier New, monospace" font-size="11" dominant-baseline="middle" text-anchor="middle">7</text><text x="380" y="8" font-family="Courier New, monospace" font-size="11" dominant-baseline="middle" text-anchor="middle">8</text><text x="420" y="8" font-family="Courier New, monospace" font-size="11" dominant-baseline="middle" text-anchor="middle">9</text><text x="460" y="8" font-family="Courier New, monospace" font-size="11" dominant-baseline="middle" text-anchor="middle">a</text><text x="500" y="8" font-family="Courier New, monospace" font-size="11" dominant-baseline="middle" text-anchor="middle">b</text><text x="540" y="8" font-family="Courier New, monospace" font-size="11" dominant-baseline="middle" text-anchor="middle">c</text><text x="580" y="8" font-family="Courier New, monospace" font-size="11" dominant-baseline="middle" text-anchor="middle">d</text><text x="620" y="8" font-family="Courier New, monospace" font-size="11" dominant-baseline="middle" text-anchor="middle">e</text><text x="660" y="8" font-family="Courier New, monospace" font-size="11" dominant-baseline="middle" text-anchor="middle">f</text><rect x="40" y="15" height="30" width="320" fill="#e8f4f8" /><line x1="40" y1="15" x2="360" y2="15" stroke="#000000" stroke-width="1" /><line x1="40" y1="45" x2="360" y2="45" stroke="#000000" stroke-width="1" /><line stroke-dasharray="1,3" x1="360" y1="15" x2="360" y2="45" stroke="#000000" stroke-width="1" /><line x1="40" y1="15" x2="40" y2="45" stroke="#000000" stroke-width="1" /><text font-size="18" font-family="Palatino, Georgia, Times New Roman, serif" x="200" y="31" text-anchor="middle" dominant-baseline="middle">0x23 (Job Header)</text><rect x="360" y="15" height="30" width="320" fill="#e8f4f8" /><line x1="360" y1="15" x2="680" y2="15" stroke="#000000" stroke-width="1" /><line x1="360" y1="45" x2="680" y2="45" stroke="#000000" stroke-width="1" /><line stroke-dasharray="1,3" x1="680" y1="15" x2="680" y2="45" stroke="#000000" stroke-width="1" /><line stroke-dasharray="1,3" x1="360" y1="15" x2="360" y2="45" stroke="#000000" stroke-width="1" /><text font-size="18" font-family="Palatino, Georgia, Times New Roman, serif" x="520" y="31" text-anchor="middle" dominant-baseline="middle">0x00 (Reserved)</text><text font-size="11" font-family="Courier New, monospace" font-style="normal" dominant-baseline="middle" x="35" y="30" text-anchor="end">00</text><text font-size="11" font-family="Courier New, monospace" font-style="normal" dominant-baseline="middle" x="35" y="60" text-anchor="end">10</text><rect x="40" y="45" height="30" width="320" fill="#e8f4f8" /><line x1="40" y1="45" x2="360" y2="45" stroke="#000000" stroke-width="1" /><line x1="40" y1="75" x2="360" y2="75" stroke="#000000" stroke-width="1" /><line stroke-dasharray="1,3" x1="360" y1="45" x2="360" y2="75" stroke="#000000" stroke-width="1" /><line stroke-dasharray="1,3" x1="40" y1="45" x2="40" y2="75" stroke="#000000" stroke-width="1" /><text font-size="18" font-family="Palatino, Georgia, Times New Roman, serif" x="200" y="61" text-anchor="middle" dominant-baseline="middle">0x26 (Length = 38)</text><rect x="360" y="45" height="30" width="320" fill="#e8f4f8" /><line x1="360" y1="45" x2="680" y2="45" stroke="#000000" stroke-width="1" /><line x1="360" y1="75" x2="680" y2="75" stroke="#000000" stroke-width="1" /><line x1="680" y1="45" x2="680" y2="75" stroke="#000000" stroke-width="1" /><line stroke-dasharray="1,3" x1="360" y1="45" x2="360" y2="75" stroke="#000000" stroke-width="1" /><text font-size="18" font-family="Palatino, Georgia, Times New Roman, serif" x="520" y="61" text-anchor="middle" dominant-baseline="middle">Pkt Cnt MSB (16-bit BE)</text><rect x="40" y="75" height="30" width="320" fill="#e8f4f8" /><line x1="40" y1="75" x2="360" y2="75" stroke="#000000" stroke-width="1" /><line x1="40" y1="105" x2="360" y2="105" stroke="#000000" stroke-width="1" /><line stroke-dasharray="1,3" x1="360" y1="75" x2="360" y2="105" stroke="#000000" stroke-width="1" /><line x1="40" y1="75" x2="40" y2="105" stroke="#000000" stroke-width="1" /><text font-size="18" font-family="Palatino, Georgia, Times New Roman, serif" x="200" y="91" text-anchor="middle" dominant-baseline="middle">Pkt Cnt LSB</text><rect x="360" y="75" height="30" width="320" fill="#e8f4f8" /><line x1="360" y1="75" x2="680" y2="75" stroke="#000000" stroke-width="1" /><line x1="360" y1="105" x2="680" y2="105" stroke="#000000" stroke-width="1" /><line stroke-dasharray="1,3" x1="680" y1="75" x2="680" y2="105" stroke="#000000" stroke-width="1" /><line stroke-dasharray="1,3" x1="360" y1="75" x2="360" y2="105" stroke="#000000" stroke-width="1" /><text font-size="18" font-family="Palatino, Georgia, Times New Roman, serif" x="520" y="91" text-anchor="middle" dominant-baseline="middle">0x01 (Version/Mode)</text><text font-size="11" font-family="Courier New, monospace" font-style="normal" dominant-baseline="middle" x="35" y="120" text-anchor="end">20</text><rect x="40" y="105" height="30" width="320" fill="#ffe8e8" /><line x1="40" y1="105" x2="360" y2="105" stroke="#000000" stroke-width="1" /><line x1="40" y1="135" x2="360" y2="135" stroke="#000000" stroke-width="1" /><line stroke-dasharray="1,3" x1="360" y1="105" x2="360" y2="135" stroke="#000000" stroke-width="1" /><line stroke-dasharray="1,3" x1="40" y1="105" x2="40" y2="135" stroke="#000000" stroke-width="1" /><text font-size="18" font-family="Palatino, Georgia, Times New Roman, serif" x="200" y="121" text-anchor="middle" dominant-baseline="middle">Raster W MSB (16-bit BE)</text><rect x="360" y="105" height="30" width="320" fill="#ffe8e8" /><line x1="360" y1="105" x2="680" y2="105" stroke="#000000" stroke-width="1" /><line x1="360" y1="135" x2="680" y2="135" stroke="#000000" stroke-width="1" /><line x1="680" y1="105" x2="680" y2="135" stroke="#000000" stroke-width="1" /><line stroke-dasharray="1,3" x1="360" y1="105" x2="360" y2="135" stroke="#000000" stroke-width="1" /><text font-size="18" font-family="Palatino, Georgia, Times New Roman, serif" x="520" y="121" text-anchor="middle" dominant-baseline="middle">Raster W LSB</text><rect x="40" y="135" height="30" width="320" fill="#ffe8e8" /><line x1="40" y1="135" x2="360" y2="135" stroke="#000000" stroke-width="1" /><line x1="40" y1="165" x2="360" y2="165" stroke="#000000" stroke-width="1" /><line stroke-dasharray="1,3" x1="360" y1="135" x2="360" y2="165" stroke="#000000" stroke-width="1" /><line x1="40" y1="135" x2="40" y2="165" stroke="#000000" stroke-width="1" /><text font-size="18" font-family="Palatino, Georgia, Times New Roman, serif" x="200" y="151" text-anchor="middle" dominant-baseline="middle">Raster H MSB (16-bit BE)</text><rect x="360" y="135" height="30" width="320" fill="#ffe8e8" /><line x1="360" y1="135" x2="680" y2="135" stroke="#000000" stroke-width="1" /><line x1="360" y1="165" x2="680" y2="165" stroke="#000000" stroke-width="1" /><line stroke-dasharray="1,3" x1="680" y1="135" x2="680" y2="165" stroke="#000000" stroke-width="1" /><line stroke-dasharray="1,3" x1="360" y1="135" x2="360" y2="165" stroke="#000000" stroke-width="1" /><text font-size="18" font-family="Palatino, Georgia, Times New Roman, serif" x="520" y="151" text-anchor="middle" dominant-baseline="middle">Raster H LSB</text><text font-size="11" font-family="Courier New, monospace" font-style="normal" dominant-baseline="middle" x="35" y="180" text-anchor="end">30</text><rect x="40" y="165" height="30" width="320" fill="#e8f4f8" /><line x1="40" y1="165" x2="360" y2="165" stroke="#000000" stroke-width="1" /><line x1="40" y1="195" x2="360" y2="195" stroke="#000000" stroke-width="1" /><line stroke-dasharray="1,3" x1="360" y1="165" x2="360" y2="195" stroke="#000000" stroke-width="1" /><line stroke-dasharray="1,3" x1="40" y1="165" x2="40" y2="195" stroke="#000000" stroke-width="1" /><text font-size="18" font-family="Palatino, Georgia, Times New Roman, serif" x="200" y="181" text-anchor="middle" dominant-baseline="middle">0x00 (Offset MSB)</text><rect x="360" y="165" height="30" width="320" fill="#e8f4f8" /><line x1="360" y1="165" x2="680" y2="165" stroke="#000000" stroke-width="1" /><line x1="360" y1="195" x2="680" y2="195" stroke="#000000" stroke-width="1" /><line x1="680" y1="165" x2="680" y2="195" stroke="#000000" stroke-width="1" /><line stroke-dasharray="1,3" x1="360" y1="165" x2="360" y2="195" stroke="#000000" stroke-width="1" /><text font-size="18" font-family="Palatino, Georgia, Times New Roman, serif" x="520" y="181" text-anchor="middle" dominant-baseline="middle">0x21 (Offset LSB = 33)</text><rect x="40" y="195" height="30" width="320" fill="#ffe8e8" /><line x1="40" y1="195" x2="360" y2="195" stroke="#000000" stroke-width="1" /><line x1="40" y1="225" x2="360" y2="225" stroke="#000000" stroke-width="1" /><line stroke-dasharray="1,3" x1="360" y1="195" x2="360" y2="225" stroke="#000000" stroke-width="1" /><line x1="40" y1="195" x2="40" y2="225" stroke="#000000" stroke-width="1" /><text font-size="18" font-family="Palatino, Georgia, Times New Roman, serif" x="200" y="211" text-anchor="middle" dominant-baseline="middle">Rast Pwr MSB (16-bit BE, 0-1000)</text><rect x="360" y="195" height="30" width="320" fill="#ffe8e8" /><line x1="360" y1="195" x2="680" y2="195" stroke="#000000" stroke-width="1" /><line x1="360" y1="225" x2="680" y2="225" stroke="#000000" stroke-width="1" /><line stroke-dasharray="1,3" x1="680" y1="195" x2="680" y2="225" stroke="#000000" stroke-width="1" /><line stroke-dasharray="1,3" x1="360" y1="195" x2="360" y2="225" stroke="#000000" stroke-width="1" /><text font-size="18" font-family="Palatino, Georgia, Times New Roman, serif" x="520" y="211" text-anchor="middle" dominant-baseline="middle">Rast Pwr LSB</text><text font-size="11" font-family="Courier New, monospace" font-style="normal" dominant-baseline="middle" x="35" y="240" text-anchor="end">40</text><rect x="40" y="225" height="30" width="320" fill="#ffe8e8" /><line x1="40" y1="225" x2="360" y2="225" stroke="#000000" stroke-width="1" /><line x1="40" y1="255" x2="360" y2="255" stroke="#000000" stroke-width="1" /><line stroke-dasharray="1,3" x1="360" y1="225" x2="360" y2="255" stroke="#000000" stroke-width="1" /><line stroke-dasharray="1,3" x1="40" y1="225" x2="40" y2="255" stroke="#000000" stroke-width="1" /><text font-size="18" font-family="Palatino, Georgia, Times New Roman, serif" x="200" y="241" text-anchor="middle" dominant-baseline="middle">Rast Dep MSB (16-bit BE, 1-255)</text><rect x="360" y="225" height="30" width="320" fill="#ffe8e8" /><line x1="360" y1="225" x2="680" y2="225" stroke="#000000" stroke-width="1" /><line x1="360" y1="255" x2="680" y2="255" stroke="#000000" stroke-width="1" /><line x1="680" y1="225" x2="680" y2="255" stroke="#000000" stroke-width="1" /><line stroke-dasharray="1,3" x1="360" y1="225" x2="360" y2="255" stroke="#000000" stroke-width="1" /><text font-size="18" font-family="Palatino, Georgia, Times New Roman, serif" x="520" y="241" text-anchor="middle" dominant-baseline="middle">Rast Dep LSB</text><rect x="40" y="255" height="30" width="320" fill="#e8ffe8" /><line x1="40" y1="255" x2="360" y2="255" stroke="#000000" stroke-width="1" /><line x1="40" y1="285" x2="360" y2="285" stroke="#000000" stroke-width="1" /><line stroke-dasharray="1,3" x1="360" y1="255" x2="360" y2="285" stroke="#000000" stroke-width="1" /><line x1="40" y1="255" x2="40" y2="285" stroke="#000000" stroke-width="1" /><text font-size="18" font-family="Palatino, Georgia, Times New Roman, serif" x="200" y="271" text-anchor="middle" dominant-baseline="middle">Vect W MSB (16-bit BE)</text><rect x="360" y="255" height="30" width="320" fill="#e8ffe8" /><line x1="360" y1="255" x2="680" y2="255" stroke="#000000" stroke-width="1" /><line x1="360" y1="285" x2="680" y2="285" stroke="#000000" stroke-width="1" /><line stroke-dasharray="1,3" x1="680" y1="255" x2="680" y2="285" stroke="#000000" stroke-width="1" /><line stroke-dasharray="1,3" x1="360" y1="255" x2="360" y2="285" stroke="#000000" stroke-width="1" /><text font-size="18" font-family="Palatino, Georgia, Times New Roman, serif" x="520" y="271" text-anchor="middle" dominant-baseline="middle">Vect W LSB</text><text font-size="11" font-family="Courier New, monospace" font-style="normal" dominant-baseline="middle" x="35" y="300" text-anchor="end">50</text><rect x="40" y="285" height="30" width="320" fill="#e8ffe8" /><line x1="40" y1="285" x2="360" y2="285" stroke="#000000" stroke-width="1" /><line x1="40" y1="315" x2="360" y2="315" stroke="#000000" stroke-width="1" /><line stroke-dasharray="1,3" x1="360" y1="285" x2="360" y2="315" stroke="#000000" stroke-width="1" /><line stroke-dasharray="1,3" x1="40" y1="285" x2="40" y2="315" stroke="#000000" stroke-width="1" /><text font-size="18" font-family="Palatino, Georgia, Times New Roman, serif" x="200" y="301" text-anchor="middle" dominant-baseline="middle">Vect H MSB (16-bit BE)</text><rect x="360" y="285" height="30" width="320" fill="#e8ffe8" /><line x1="360" y1="285" x2="680" y2="285" stroke="#000000" stroke-width="1" /><line x1="360" y1="315" x2="680" y2="315" stroke="#000000" stroke-width="1" /><line x1="680" y1="285" x2="680" y2="315" stroke="#000000" stroke-width="1" /><line stroke-dasharray="1,3" x1="360" y1="285" x2="360" y2="315" stroke="#000000" stroke-width="1" /><text font-size="18" font-family="Palatino, Georgia, Times New Roman, serif" x="520" y="301" text-anchor="middle" dominant-baseline="middle">Vect H LSB</text><rect x="40" y="315" height="30" width="320" fill="#ffe8e8" /><line x1="40" y1="315" x2="360" y2="315" stroke="#000000" stroke-width="1" /><line x1="40" y1="345" x2="360" y2="345" stroke="#000000" stroke-width="1" /><line stroke-dasharray="1,3" x1="360" y1="315" x2="360" y2="345" stroke="#000000" stroke-width="1" /><line x1="40" y1="315" x2="40" y2="345" stroke="#000000" stroke-width="1" /><text font-size="18" font-family="Palatino, Georgia, Times New Roman, serif" x="200" y="331" text-anchor="middle" dominant-baseline="middle">Vect Offset byte 0 (32-bit BE)</text><rect x="360" y="315" height="30" width="320" fill="#ffe8e8" /><line x1="360" y1="315" x2="680" y2="315" stroke="#000000" stroke-width="1" /><line x1="360" y1="345" x2="680" y2="345" stroke="#000000" stroke-width="1" /><line stroke-dasharray="1,3" x1="680" y1="315" x2="680" y2="345" stroke="#000000" stroke-width="1" /><line stroke-dasharray="1,3" x1="360" y1="315" x2="360" y2="345" stroke="#000000" stroke-width="1" /><text font-size="18" font-family="Palatino, Georgia, Times New Roman, serif" x="520" y="331" text-anchor="middle" dominant-baseline="middle">Vect Offset byte 1</text><text font-size="11" font-family="Courier New, monospace" font-style="normal" dominant-baseline="middle" x="35" y="360" text-anchor="end">60</text><rect x="40" y="345" height="30" width="320" fill="#ffe8e8" /><line x1="40" y1="345" x2="360" y2="345" stroke="#000000" stroke-width="1" /><line x1="40" y1="375" x2="360" y2="375" stroke="#000000" stroke-width="1" /><line stroke-dasharray="1,3" x1="360" y1="345" x2="360" y2="375" stroke="#000000" stroke-width="1" /><line stroke-dasharray="1,3" x1="40" y1="345" x2="40" y2="375" stroke="#000000" stroke-width="1" /><text font-size="18" font-family="Palatino, Georgia, Times New Roman, serif" x="200" y="361" text-anchor="middle" dominant-baseline="middle">Vect Offset byte 2</text><rect x="360" y="345" height="30" width="320" fill="#ffe8e8" /><line x1="360" y1="345" x2="680" y2="345" stroke="#000000" stroke-width="1" /><line x1="360" y1="375" x2="680" y2="375" stroke="#000000" stroke-width="1" /><line x1="680" y1="345" x2="680" y2="375" stroke="#000000" stroke-width="1" /><line stroke-dasharray="1,3" x1="360" y1="345" x2="360" y2="375" stroke="#000000" stroke-width="1" /><text font-size="18" font-family="Palatino, Georgia, Times New Roman, serif" x="520" y="361" text-anchor="middle" dominant-baseline="middle">Vect Offset byte 3</text><rect x="40" y="375" height="30" width="320" fill="#e8ffe8" /><line x1="40" y1="375" x2="360" y2="375" stroke="#000000" stroke-width="1" /><line x1="40" y1="405" x2="360" y2="405" stroke="#000000" stroke-width="1" /><line stroke-dasharray="1,3" x1="360" y1="375" x2="360" y2="405" stroke="#000000" stroke-width="1" /><line x1="40" y1="375" x2="40" y2="405" stroke="#000000" stroke-width="1" /><text font-size="18" font-family="Palatino, Georgia, Times New Roman, serif" x="200" y="391" text-anchor="middle" dominant-baseline="middle">Vect Pwr MSB (16-bit BE, 0-1000)</text><rect x="360" y="375" height="30" width="320" fill="#e8ffe8" /><line x1="360" y1="375" x2="680" y2="375" stroke="#000000" stroke-width="1" /><line x1="360" y1="405" x2="680" y2="405" stroke="#000000" stroke-width="1" /><line stroke-dasharray="1,3" x1="680" y1="375" x2="680" y2="405" stroke="#000000" stroke-width="1" /><line stroke-dasharray="1,3" x1="360" y1="375" x2="360" y2="405" stroke="#000000" stroke-width="1" /><text font-size="18" font-family="Palatino, Georgia, Times New Roman, serif" x="520" y="391" text-anchor="middle" dominant-baseline="middle">Vect Pwr LSB</text><text font-size="11" font-family="Courier New, monospace" font-style="normal" dominant-baseline="middle" x="35" y="420" text-anchor="end">70</text><rect x="40" y="405" height="30" width="320" fill="#e8ffe8" /><line x1="40" y1="405" x2="360" y2="405" stroke="#000000" stroke-width="1" /><line x1="40" y1="435" x2="360" y2="435" stroke="#000000" stroke-width="1" /><line stroke-dasharray="1,3" x1="360" y1="405" x2="360" y2="435" stroke="#000000" stroke-width="1" /><line stroke-dasharray="1,3" x1="40" y1="405" x2="40" y2="435" stroke="#000000" stroke-width="1" /><text font-size="18" font-family="Palatino, Georgia, Times New Roman, serif" x="200" y="421" text-anchor="middle" dominant-baseline="middle">Vect Dep MSB (16-bit BE, 1-255)</text><rect x="360" y="405" height="30" width="320" fill="#e8ffe8" /><line x1="360" y1="405" x2="680" y2="405" stroke="#000000" stroke-width="1" /><line x1="360" y1="435" x2="680" y2="435" stroke="#000000" stroke-width="1" /><line x1="680" y1="405" x2="680" y2="435" stroke="#000000" stroke-width="1" /><line stroke-dasharray="1,3" x1="360" y1="405" x2="360" y2="435" stroke="#000000" stroke-width="1" /><text font-size="18" font-family="Palatino, Georgia, Times New Roman, serif" x="520" y="421" text-anchor="middle" dominant-baseline="middle">Vect Dep LSB</text><rect x="40" y="435" height="30" width="320" fill="#e8ffe8" /><line x1="40" y1="435" x2="360" y2="435" stroke="#000000" stroke-width="1" /><line x1="40" y1="465" x2="360" y2="465" stroke="#000000" stroke-width="1" /><line stroke-dasharray="1,3" x1="360" y1="435" x2="360" y2="465" stroke="#000000" stroke-width="1" /><line x1="40" y1="435" x2="40" y2="465" stroke="#000000" stroke-width="1" /><text font-size="18" font-family="Palatino, Georgia, Times New Roman, serif" x="200" y="451" text-anchor="middle" dominant-baseline="middle">Pt Cnt byte 0 (32-bit BE)</text><rect x="360" y="435" height="30" width="320" fill="#e8ffe8" /><line x1="360" y1="435" x2="680" y2="435" stroke="#000000" stroke-width="1" /><line x1="360" y1="465" x2="680" y2="465" stroke="#000000" stroke-width="1" /><line stroke-dasharray="1,3" x1="680" y1="435" x2="680" y2="465" stroke="#000000" stroke-width="1" /><line stroke-dasharray="1,3" x1="360" y1="435" x2="360" y2="465" stroke="#000000" stroke-width="1" /><text font-size="18" font-family="Palatino, Georgia, Times New Roman, serif" x="520" y="451" text-anchor="middle" dominant-baseline="middle">Pt Cnt byte 1</text><text font-size="11" font-family="Courier New, monospace" font-style="normal" dominant-baseline="middle" x="35" y="480" text-anchor="end">80</text><rect x="40" y="465" height="30" width="320" fill="#e8ffe8" /><line x1="40" y1="465" x2="360" y2="465" stroke="#000000" stroke-width="1" /><line x1="40" y1="495" x2="360" y2="495" stroke="#000000" stroke-width="1" /><line stroke-dasharray="1,3" x1="360" y1="465" x2="360" y2="495" stroke="#000000" stroke-width="1" /><line stroke-dasharray="1,3" x1="40" y1="465" x2="40" y2="495" stroke="#000000" stroke-width="1" /><text font-size="18" font-family="Palatino, Georgia, Times New Roman, serif" x="200" y="481" text-anchor="middle" dominant-baseline="middle">Pt Cnt byte 2</text><rect x="360" y="465" height="30" width="320" fill="#e8ffe8" /><line x1="360" y1="465" x2="680" y2="465" stroke="#000000" stroke-width="1" /><line x1="360" y1="495" x2="680" y2="495" stroke="#000000" stroke-width="1" /><line x1="680" y1="465" x2="680" y2="495" stroke="#000000" stroke-width="1" /><line stroke-dasharray="1,3" x1="360" y1="465" x2="360" y2="495" stroke="#000000" stroke-width="1" /><text font-size="18" font-family="Palatino, Georgia, Times New Roman, serif" x="520" y="481" text-anchor="middle" dominant-baseline="middle">Pt Cnt byte 3</text><rect x="40" y="495" height="30" width="320" fill="#f8f8e8" /><line x1="40" y1="495" x2="360" y2="495" stroke="#000000" stroke-width="1" /><line x1="40" y1="525" x2="360" y2="525" stroke="#000000" stroke-width="1" /><line stroke-dasharray="1,3" x1="360" y1="495" x2="360" y2="525" stroke="#000000" stroke-width="1" /><line x1="40" y1="495" x2="40" y2="525" stroke="#000000" stroke-width="1" /><text font-size="18" font-family="Palatino, Georgia, Times New Roman, serif" x="200" y="511" text-anchor="middle" dominant-baseline="middle">Center X MSB (16-bit BE)</text><rect x="360" y="495" height="30" width="320" fill="#f8f8e8" /><line x1="360" y1="495" x2="680" y2="495" stroke="#000000" stroke-width="1" /><line x1="360" y1="525" x2="680" y2="525" stroke="#000000" stroke-width="1" /><line stroke-dasharray="1,3" x1="680" y1="495" x2="680" y2="525" stroke="#000000" stroke-width="1" /><line stroke-dasharray="1,3" x1="360" y1="495" x2="360" y2="525" stroke="#000000" stroke-width="1" /><text font-size="18" font-family="Palatino, Georgia, Times New Roman, serif" x="520" y="511" text-anchor="middle" dominant-baseline="middle">Center X LSB</text><text font-size="11" font-family="Courier New, monospace" font-style="normal" dominant-baseline="middle" x="35" y="540" text-anchor="end">90</text><rect x="40" y="525" height="30" width="320" fill="#f8f8e8" /><line x1="40" y1="525" x2="360" y2="525" stroke="#000000" stroke-width="1" /><line x1="40" y1="555" x2="360" y2="555" stroke="#000000" stroke-width="1" /><line stroke-dasharray="1,3" x1="360" y1="525" x2="360" y2="555" stroke="#000000" stroke-width="1" /><line stroke-dasharray="1,3" x1="40" y1="525" x2="40" y2="555" stroke="#000000" stroke-width="1" /><text font-size="18" font-family="Palatino, Georgia, Times New Roman, serif" x="200" y="541" text-anchor="middle" dominant-baseline="middle">Center Y MSB (16-bit BE)</text><rect x="360" y="525" height="30" width="320" fill="#f8f8e8" /><line x1="360" y1="525" x2="680" y2="525" stroke="#000000" stroke-width="1" /><line x1="360" y1="555" x2="680" y2="555" stroke="#000000" stroke-width="1" /><line x1="680" y1="525" x2="680" y2="555" stroke="#000000" stroke-width="1" /><line stroke-dasharray="1,3" x1="360" y1="525" x2="360" y2="555" stroke="#000000" stroke-width="1" /><text font-size="18" font-family="Palatino, Georgia, Times New Roman, serif" x="520" y="541" text-anchor="middle" dominant-baseline="middle">Center Y LSB</text><rect x="40" y="555" height="30" width="320" fill="#e8f4f8" /><line x1="40" y1="555" x2="360" y2="555" stroke="#000000" stroke-width="1" /><line x1="40" y1="585" x2="360" y2="585" stroke="#000000" stroke-width="1" /><line stroke-dasharray="1,3" x1="360" y1="555" x2="360" y2="585" stroke="#000000" stroke-width="1" /><line x1="40" y1="555" x2="40" y2="585" stroke="#000000" stroke-width="1" /><text font-size="18" font-family="Palatino, Georgia, Times New Roman, serif" x="200" y="571" text-anchor="middle" dominant-baseline="middle">Repeat (1-10)</text><rect x="360" y="555" height="30" width="320" fill="#e8f4f8" /><line x1="360" y1="555" x2="680" y2="555" stroke="#000000" stroke-width="1" /><line x1="360" y1="585" x2="680" y2="585" stroke="#000000" stroke-width="1" /><line stroke-dasharray="1,3" x1="680" y1="555" x2="680" y2="585" stroke="#000000" stroke-width="1" /><line stroke-dasharray="1,3" x1="360" y1="555" x2="360" y2="585" stroke="#000000" stroke-width="1" /><text font-size="18" font-family="Palatino, Georgia, Times New Roman, serif" x="520" y="571" text-anchor="middle" dominant-baseline="middle">0x00 (Reserved)</text><text font-size="11" font-family="Courier New, monospace" font-style="normal" dominant-baseline="middle" x="35" y="600" text-anchor="end">a0</text><rect x="40" y="585" height="30" width="320" fill="#e8f4f8" /><line x1="40" y1="585" x2="360" y2="585" stroke="#000000" stroke-width="1" /><line x1="40" y1="615" x2="360" y2="615" stroke="#000000" stroke-width="1" /><line stroke-dasharray="1,3" x1="360" y1="585" x2="360" y2="615" stroke="#000000" stroke-width="1" /><line stroke-dasharray="1,3" x1="40" y1="585" x2="40" y2="615" stroke="#000000" stroke-width="1" /><text font-size="18" font-family="Palatino, Georgia, Times New Roman, serif" x="200" y="601" text-anchor="middle" dominant-baseline="middle">0x00 (Reserved)</text><rect x="360" y="585" height="30" width="320" fill="#e8f4f8" /><line x1="360" y1="585" x2="680" y2="585" stroke="#000000" stroke-width="1" /><line x1="360" y1="615" x2="680" y2="615" stroke="#000000" stroke-width="1" /><line x1="680" y1="585" x2="680" y2="615" stroke="#000000" stroke-width="1" /><line stroke-dasharray="1,3" x1="360" y1="585" x2="360" y2="615" stroke="#000000" stroke-width="1" /><text font-size="18" font-family="Palatino, Georgia, Times New Roman, serif" x="520" y="601" text-anchor="middle" dominant-baseline="middle">0x00 (Reserved)</text></svg>