<?xml version='1.0' encoding='utf-8'?>
<svg xmlns="http://www.w3.org/2000/svg" version="1.0" width="681" height="176" viewBox="0 0 681 176"><defs><linearGradient id="bg-gradient" x1="0%" y1="0%" x2="100%" y2="100%"><stop offset="0%" style="stop-color:#ffffff;stop-opacity:1" /><stop offset="100%" style="stop-color:#aaaaff;stop-opacity:1" /></linearGradient></defs><rect x="0.0" y="0.0" width="681.0" height="176.0" fill="url(#bg-gradient)" /><text x="60" y="8" font-family="Courier New, monospace" font-size="11" dominant-baseline="middle" text-anchor="middle">0</text><text x="100" y="8" font-family="Courier New, monospace" font-size="11" dominant-baseline="middle" text-anchor="middle">1</text><text x="140" y="8" font-family="Courier New, monospace" font-size="11" dominant-baseline="middle" text-anchor="middle">2</text><text x="180" y="8" font-family="Courier New, monospace" font-size="11" dominant-baseline="middle" text-anchor="middle">3</text><text x="220" y="8" font-family="Courier New, monospace" font-size="11" dominant-baseline="middle" text-anchor="middle">4</text><text x="260" y="8" font-family="Courier New, monospace" font-size="11" dominant-baseline="middle" text-anchor="middle">5</text><text x="300" y="8" font-family="Courier New, monospace" font-size="11" dominant-baseline="middle" text-anchor="middle">6</text><text x="340" y="8" font-family="Courier New, monospace" font-size="11" dominant-baseline="middle" text-anchor="middle">7</text><text x="380" y="8" font-family="Courier New, monospace" font-size="11" dominant-baseline="middle" text-anchor="middle">8</text><text x="420" y="8" font-family="Courier New, monospace" font-size="11" dominant-baseline="middle" text-anchor="middle">9</text><text x="460" y="8" font-family="Courier New, monospace" font-size="11" dominant-baseline="middle" text-anchor="middle">a</text><text x="500" y="8" font-family="Courier New, monospace" font-size="11" dominant-baseline="middle" text-anchor="middle">b</text><text x="540" y="8" font-family="Courier New, monospace" font-size="11" dominant-baseline="middle" text-anchor="middle">c</text><text x="580" y="8" font-family="Courier New, monospace" font-size="11" dominant-baseline="middle" text-anchor="middle">d</text><text x="620" y="8" font-family="Courier New, monospace" font-size="11" dominant-baseline="middle" text-anchor="middle">e</text><text x="660" y="8" font-family="Courier New, monospace" font-size="11" dominant-baseline="middle" text-anchor="middle">f</text><rect x="40" y="15" height="30" width="320" fill="#e8f4f8" /><line x1="40" y1="15" x2="360" y2="15" stroke="#000000" stroke-width="1" /><line x1="40" y1="45" x2="360" y2="45" stroke="#000000" stroke-width="1" /><line stroke-dasharray="1,3" x1="360" y1="15" x2="360" y2="45" stroke="#000000" stroke-width="1" /><line x1="40" y1="15" x2="40" y2="45" stroke="#000000" stroke-width="1" /><text font-size="18" font-family="Palatino, Georgia, Times New Roman, serif" x="200" y="31" text-anchor="middle" dominant-baseline="middle">0xFE (Reset MCU/IAP)</text><rect x="360" y="15" height="30" width="320" fill="#e8f4f8" /><line x1="360" y1="15" x2="680" y2="15" stroke="#000000" stroke-width="1" /><line x1="360" y1="45" x2="680" y2="45" stroke="#000000" stroke-width="1" /><line stroke-dasharray="1,3" x1="680" y1="15" x2="680" y2="45" stroke="#000000" stroke-width="1" /><line stroke-dasharray="1,3" x1="360" y1="15" x2="360" y2="45" stroke="#000000" stroke-width="1" /><text font-size="18" font-family="Palatino, Georgia, Times New Roman, serif" x="520" y="31" text-anchor="middle" dominant-baseline="middle">0x00 (Reserved)</text><text font-size="11" font-family="Courier New, monospace" font-style="normal" dominant-baseline="middle" x="35" y="30" text-anchor="end">00</text><text font-size="11" font-family="Courier New, monospace" font-style="normal" dominant-baseline="middle" x="35" y="60" text-anchor="end">10</text><rect x="40" y="45" height="30" width="320" fill="#e8f4f8" /><line x1="40" y1="45" x2="360" y2="45" stroke="#000000" stroke-width="1" /><line x1="40" y1="75" x2="360" y2="75" stroke="#000000" stroke-width="1" /><line stroke-dasharray="1,3" x1="360" y1="45" x2="360" y2="75" stroke="#000000" stroke-width="1" /><line stroke-dasharray="1,3" x1="40" y1="45" x2="40" y2="75" stroke="#000000" stroke-width="1" /><text font-size="18" font-family="Palatino, Georgia, Times New Roman, serif" x="200" y="61" text-anchor="middle" dominant-baseline="middle">0x05 (Length)</text><rect x="360" y="45" height="30" width="320" fill="#e8f4f8" /><line x1="360" y1="45" x2="680" y2="45" stroke="#000000" stroke-width="1" /><line x1="360" y1="75" x2="680" y2="75" stroke="#000000" stroke-width="1" /><line stroke-dasharray="1,3" x1="680" y1="45" x2="680" y2="75" stroke="#000000" stroke-width="1" /><line stroke-dasharray="1,3" x1="360" y1="45" x2="360" y2="75" stroke="#000000" stroke-width="1" /><text font-size="18" font-family="Palatino, Georgia, Times New Roman, serif" x="520" y="61" text-anchor="middle" dominant-baseline="middle">0x00 (Reserved)</text><rect x="40" y="75" height="30" width="320" fill="#e8f4f8" /><line x1="40" y1="75" x2="360" y2="75" stroke="#000000" stroke-width="1" /><line x1="40" y1="105" x2="360" y2="105" stroke="#000000" stroke-width="1" /><line x1="360" y1="75" x2="360" y2="105" stroke="#000000" stroke-width="1" /><line x1="40" y1="75" x2="40" y2="105" stroke="#000000" stroke-width="1" /><text font-size="18" font-family="Palatino, Georgia, Times New Roman, serif" x="200" y="91" text-anchor="middle" dominant-baseline="middle">Checksum (Two's complement)</text><line x1="360" y1="75" x2="680" y2="75" stroke="#000000" stroke-width="1" /><line x1="680" y1="75" x2="680" y2="105" stroke="#000000" stroke-width="1" /><line x1="360" y1="75" x2="360" y2="105" stroke="#000000" stroke-width="1" /><text font-size="18" font-family="Courier New, monospace" x="520" y="91" text-anchor="middle" dominant-baseline="middle">0000000000000018</text><text font-size="11" font-family="Courier New, monospace" font-style="normal" dominant-baseline="middle" x="35" y="120" text-anchor="end">20</text><line x1="40" y1="105" x2="40" y2="120" stroke="#000000" stroke-width="1" /><line x1="680" y1="105" x2="680" y2="150" stroke="#000000" stroke-width="1" /><line stroke-dasharray="1,1" x1="40" y1="120" x2="680" y2="150" stroke="#000000" stroke-width="1" /><line x1="40" y1="130" x2="40" y2="175" stroke="#000000" stroke-width="1" /><line x1="680" y1="160" x2="680" y2="175" stroke="#000000" stroke-width="1" /><line stroke-dasharray="1,1" x1="40" y1="130" x2="680" y2="160" stroke="#000000" stroke-width="1" /><text font-size="11" font-family="Palatino, Georgia, Times New Roman, serif" font-style="italic" dominant-baseline="middle" x="35" y="190" text-anchor="end">i+<tspan font-size="11" font-family="Courier New, monospace" font-style="normal" dominant-baseline="middle">00</tspan></text></svg>